<svg width="340" height="340" viewBox="0 0 340 340" fill="none" xmlns="http://www.w3.org/2000/svg">
<path d="M340 260.032H0V260.202H340V260.032Z" fill="#EBEBEB"/>
<path d="M305.932 270.973H283.41V271.143H305.932V270.973Z" fill="#EBEBEB"/>
<path d="M225.23 272.823H219.32V272.993H225.23V272.823Z" fill="#EBEBEB"/>
<path d="M282.73 264.663H269.681V264.833H282.73V264.663Z" fill="#EBEBEB"/>
<path d="M65.0421 265.805H35.6729V265.975H65.0421V265.805Z" fill="#EBEBEB"/>
<path d="M75.4052 265.805H71.1008V265.975H75.4052V265.805Z" fill="#EBEBEB"/>
<path d="M153.102 268.675H89.3997V268.845H153.102V268.675Z" fill="#EBEBEB"/>
<path d="M161.16 229.704H29.8588C28.8302 229.702 27.8443 229.292 27.1176 228.564C26.3909 227.836 25.9828 226.85 25.9828 225.821V41.2488C25.9917 40.2261 26.4038 39.2482 27.1296 38.5276C27.8553 37.807 28.836 37.4018 29.8588 37.4H161.16C162.19 37.4 163.177 37.8091 163.906 38.5373C164.634 39.2654 165.043 40.253 165.043 41.2828V225.821C165.043 226.851 164.634 227.839 163.906 228.567C163.177 229.295 162.19 229.704 161.16 229.704ZM29.8588 37.536C28.8753 37.5378 27.9327 37.9298 27.2378 38.6259C26.543 39.322 26.1528 40.2653 26.1528 41.2488V225.821C26.1528 226.805 26.543 227.748 27.2378 228.444C27.9327 229.14 28.8753 229.532 29.8588 229.534H161.16C162.144 229.532 163.087 229.14 163.783 228.445C164.479 227.749 164.871 226.805 164.873 225.821V41.2488C164.871 40.2647 164.479 39.3214 163.783 38.6255C163.087 37.9296 162.144 37.5378 161.16 37.536H29.8588Z" fill="#EBEBEB"/>
<path d="M308.251 229.704H176.943C175.914 229.702 174.927 229.293 174.199 228.565C173.472 227.837 173.062 226.85 173.06 225.821V41.2488C173.071 40.2255 173.484 39.2476 174.211 38.5272C174.938 37.8067 175.919 37.4018 176.943 37.4H308.251C309.272 37.4036 310.251 37.8096 310.976 38.53C311.7 39.2504 312.111 40.2273 312.12 41.2488V225.821C312.12 226.849 311.713 227.834 310.988 228.562C310.262 229.29 309.278 229.7 308.251 229.704ZM176.943 37.536C175.959 37.5378 175.015 37.9296 174.319 38.6255C173.624 39.3214 173.232 40.2647 173.23 41.2488V225.821C173.232 226.805 173.624 227.749 174.319 228.445C175.015 229.14 175.959 229.532 176.943 229.534H308.251C309.235 229.532 310.178 229.14 310.874 228.445C311.57 227.749 311.962 226.805 311.964 225.821V41.2488C311.962 40.2647 311.57 39.3214 310.874 38.6255C310.178 37.9296 309.235 37.5378 308.251 37.536H176.943Z" fill="#EBEBEB"/>
<path d="M255.211 95.4108L259.032 93.84H289L295.8 107.304V110.84L255.211 95.4108Z" fill="#E0E0E0"/>
<path d="M281.445 105.645H278.453V217.376H281.445V105.645Z" fill="#E0E0E0"/>
<path d="M296.079 111.058H262.983L255.388 95.6353H288.483L296.079 111.058Z" fill="#F0F0F0"/>
<path d="M265.418 99.8104C266.2 101.395 265.472 102.68 263.799 102.68C262.875 102.617 261.982 102.32 261.203 101.818C260.424 101.317 259.785 100.626 259.345 99.8104C258.57 98.226 259.291 96.9408 260.97 96.9408C261.895 97.001 262.788 97.2961 263.567 97.7983C264.345 98.3005 264.982 98.9931 265.418 99.8104Z" fill="#FAFAFA"/>
<path d="M272.581 101.741C273.313 100.687 272.531 98.8774 270.834 97.6979C269.138 96.5184 267.169 96.416 266.436 97.4692C265.704 98.5224 266.486 100.332 268.183 101.512C269.88 102.691 271.849 102.794 272.581 101.741Z" fill="#FAFAFA"/>
<path d="M280.938 101.962C281.673 100.909 280.893 99.095 279.197 97.9107C277.5 96.7265 275.528 96.6203 274.793 97.6736C274.058 98.7269 274.838 100.541 276.535 101.725C278.232 102.909 280.203 103.015 280.938 101.962Z" fill="#FAFAFA"/>
<path d="M288.633 99.8104C289.415 101.395 288.687 102.68 287.014 102.68C286.09 102.617 285.197 102.32 284.418 101.818C283.639 101.317 283 100.626 282.56 99.8104C281.785 98.226 282.506 96.9408 284.186 96.9408C285.11 97.001 286.003 97.2961 286.782 97.7983C287.56 98.3005 288.197 98.9931 288.633 99.8104Z" fill="#FAFAFA"/>
<path d="M268.945 109.032C269.68 107.979 268.901 106.165 267.204 104.981C265.507 103.797 263.535 103.691 262.8 104.744C262.065 105.797 262.845 107.611 264.542 108.795C266.239 109.979 268.21 110.086 268.945 109.032Z" fill="#FAFAFA"/>
<path d="M276.686 109.038C277.421 107.984 276.641 106.171 274.944 104.986C273.247 103.802 271.275 103.696 270.54 104.749C269.805 105.802 270.585 107.616 272.282 108.801C273.979 109.985 275.95 110.091 276.686 109.038Z" fill="#FAFAFA"/>
<path d="M284.419 109.036C285.154 107.983 284.374 106.169 282.677 104.985C280.98 103.801 279.009 103.694 278.274 104.748C277.539 105.801 278.319 107.615 280.015 108.799C281.712 109.983 283.684 110.09 284.419 109.036Z" fill="#FAFAFA"/>
<path d="M292.159 109.035C292.894 107.982 292.114 106.168 290.418 104.983C288.721 103.799 286.749 103.693 286.014 104.746C285.279 105.8 286.059 107.613 287.756 108.798C289.453 109.982 291.424 110.088 292.159 109.035Z" fill="#FAFAFA"/>
<path d="M72.2908 95.4108L76.1124 93.84H106.08L112.88 107.304V110.84L72.2908 95.4108Z" fill="#E0E0E0"/>
<path d="M98.5252 105.645H95.5332V217.376H98.5252V105.645Z" fill="#E0E0E0"/>
<path d="M113.159 111.058H80.0633L72.4677 95.6353H105.563L113.159 111.058Z" fill="#F0F0F0"/>
<path d="M82.4976 99.8104C83.2796 101.395 82.552 102.68 80.8792 102.68C79.9549 102.617 79.0618 102.32 78.283 101.818C77.5041 101.317 76.865 100.626 76.4252 99.8104C75.65 98.226 76.3708 96.9408 78.0504 96.9408C78.9747 97.001 79.8683 97.2961 80.6465 97.7983C81.4248 98.3005 82.0619 98.9931 82.4976 99.8104Z" fill="#FAFAFA"/>
<path d="M90.0759 101.727C90.808 100.674 90.026 98.8639 88.3291 97.6844C86.6323 96.5049 84.6633 96.4025 83.9312 97.4557C83.1991 98.5089 83.9811 100.319 85.678 101.498C87.3748 102.678 89.3438 102.78 90.0759 101.727Z" fill="#FAFAFA"/>
<path d="M98.0144 101.958C98.7494 100.905 97.9697 99.0909 96.2727 97.9067C94.5758 96.7224 92.6043 96.6163 91.8692 97.6695C91.1342 98.7228 91.914 100.537 93.6109 101.721C95.3078 102.905 97.2793 103.011 98.0144 101.958Z" fill="#FAFAFA"/>
<path d="M105.713 99.8104C106.495 101.395 105.767 102.68 104.094 102.68C103.17 102.617 102.277 102.32 101.498 101.818C100.719 101.317 100.08 100.626 99.6404 99.8104C98.8652 98.226 99.586 96.9408 101.266 96.9408C102.19 97.001 103.083 97.2961 103.862 97.7983C104.64 98.3005 105.277 98.9931 105.713 99.8104Z" fill="#FAFAFA"/>
<path d="M86.0215 109.035C86.7565 107.982 85.9767 106.168 84.2798 104.984C82.5829 103.8 80.6114 103.693 79.8763 104.747C79.1413 105.8 79.921 107.614 81.618 108.798C83.3149 109.982 85.2864 110.088 86.0215 109.035Z" fill="#FAFAFA"/>
<path d="M93.7616 109.034C94.4966 107.98 93.7169 106.166 92.0199 104.982C90.323 103.798 88.3515 103.692 87.6164 104.745C86.8814 105.798 87.6612 107.612 89.3581 108.796C91.055 109.981 93.0265 110.087 93.7616 109.034Z" fill="#FAFAFA"/>
<path d="M101.495 109.032C102.23 107.979 101.45 106.165 99.7533 104.981C98.0564 103.797 96.0849 103.69 95.3498 104.744C94.6148 105.797 95.3946 107.611 97.0915 108.795C98.7884 109.979 100.76 110.085 101.495 109.032Z" fill="#FAFAFA"/>
<path d="M109.235 109.031C109.97 107.977 109.19 106.164 107.494 104.979C105.797 103.795 103.825 103.689 103.09 104.742C102.355 105.795 103.135 107.609 104.832 108.794C106.529 109.978 108.5 110.084 109.235 109.031Z" fill="#FAFAFA"/>
<path d="M292.189 150.28H153.694V165.92H136.116V182.24H119.061V197.88H101.334V249.56H292.189V150.28Z" fill="#E0E0E0"/>
<path d="M272.469 151.796H153.694V165.92H272.469V151.796Z" fill="#EBEBEB"/>
<path d="M254.993 167.661H136.116V182.247H254.993V167.661Z" fill="#EBEBEB"/>
<path d="M237.878 183.525H119.061V197.887H237.878V183.525Z" fill="#EBEBEB"/>
<path d="M220.109 199.58H101.334V213.704H220.109V199.58Z" fill="#EBEBEB"/>
<path d="M170 290.741C242.816 290.741 301.845 287.294 301.845 283.043C301.845 278.792 242.816 275.346 170 275.346C97.1839 275.346 38.1548 278.792 38.1548 283.043C38.1548 287.294 97.1839 290.741 170 290.741Z" fill="#F5F5F5"/>
<path d="M176.664 260.114H54.3388L42.9216 214.88H165.24L176.664 260.114Z" fill="#407BFF"/>
<path d="M165.097 214.88H42.772L31.348 260.114H153.673L165.097 214.88Z" fill="#407BFF"/>
<path opacity="0.6" d="M165.097 214.88H42.772L31.348 260.114H153.673L165.097 214.88Z" fill="white"/>
<path d="M305.946 260.114H183.62L172.203 214.88H294.522L305.946 260.114Z" fill="#407BFF"/>
<path d="M294.379 214.88H172.054L160.63 260.114H282.955L294.379 214.88Z" fill="#407BFF"/>
<path opacity="0.6" d="M294.379 214.88H172.054L160.63 260.114H282.955L294.379 214.88Z" fill="white"/>
<path d="M181.56 51.68H178.16V259.76H181.56V51.68Z" fill="#407BFF"/>
<path opacity="0.4" d="M181.56 51.68H178.16V259.76H181.56V51.68Z" fill="white"/>
<path opacity="0.3" d="M181.56 51.68V168.47L178.16 166.811V51.68H181.56Z" fill="black"/>
<path d="M59.8401 51.68H56.4401V283.56H59.8401V51.68Z" fill="#407BFF"/>
<path opacity="0.4" d="M59.8401 51.68H56.4401V283.56H59.8401V51.68Z" fill="white"/>
<path opacity="0.3" d="M56.4401 51.68H59.8401V107.304L56.4401 105.645V51.68Z" fill="black"/>
<path d="M183.396 53.0808H54.9984V89.7668H183.396V53.0808Z" fill="#407BFF"/>
<path opacity="0.7" d="M183.396 53.0808H54.9984V89.7668H183.396V53.0808Z" fill="white"/>
<path d="M64.1716 80.5936H54.9984V89.7668H64.1716V80.5936Z" fill="#2E353A"/>
<path d="M64.1716 62.254H54.9984V71.4272H64.1716V62.254Z" fill="#2E353A"/>
<path d="M73.338 71.4204H64.1648V80.5936H73.338V71.4204Z" fill="#2E353A"/>
<path d="M82.5112 80.5936H73.338V89.7668H82.5112V80.5936Z" fill="#2E353A"/>
<path d="M73.338 53.0808H64.1648V62.254H73.338V53.0808Z" fill="#2E353A"/>
<path d="M82.5112 62.254H73.338V71.4272H82.5112V62.254Z" fill="#2E353A"/>
<path d="M91.6844 71.4204H82.5112V80.5936H91.6844V71.4204Z" fill="#2E353A"/>
<path d="M100.858 80.5936H91.6844V89.7668H100.858V80.5936Z" fill="#2E353A"/>
<path d="M91.6844 53.0808H82.5112V62.254H91.6844V53.0808Z" fill="#2E353A"/>
<path d="M100.858 62.254H91.6844V71.4272H100.858V62.254Z" fill="#2E353A"/>
<path d="M110.024 71.4204H100.851V80.5936H110.024V71.4204Z" fill="#2E353A"/>
<path d="M119.197 80.5936H110.024V89.7668H119.197V80.5936Z" fill="#2E353A"/>
<path d="M110.024 53.0808H100.851V62.254H110.024V53.0808Z" fill="#2E353A"/>
<path d="M119.197 62.254H110.024V71.4272H119.197V62.254Z" fill="#2E353A"/>
<path d="M128.37 71.4204H119.197V80.5936H128.37V71.4204Z" fill="#2E353A"/>
<path d="M137.537 80.5936H128.364V89.7668H137.537V80.5936Z" fill="#2E353A"/>
<path d="M128.37 53.0808H119.197V62.254H128.37V53.0808Z" fill="#2E353A"/>
<path d="M137.537 62.254H128.364V71.4272H137.537V62.254Z" fill="#2E353A"/>
<path d="M146.71 71.4204H137.537V80.5936H146.71V71.4204Z" fill="#2E353A"/>
<path d="M155.883 80.5936H146.71V89.7668H155.883V80.5936Z" fill="#2E353A"/>
<path d="M146.71 53.0808H137.537V62.254H146.71V53.0808Z" fill="#2E353A"/>
<path d="M155.883 62.254H146.71V71.4272H155.883V62.254Z" fill="#2E353A"/>
<path d="M165.05 71.4204H155.876V80.5936H165.05V71.4204Z" fill="#2E353A"/>
<path d="M174.223 80.5936H165.05V89.7668H174.223V80.5936Z" fill="#2E353A"/>
<path d="M165.05 53.0808H155.876V62.254H165.05V53.0808Z" fill="#2E353A"/>
<path d="M174.223 62.254H165.05V71.4272H174.223V62.254Z" fill="#2E353A"/>
<path d="M183.396 71.4204H174.223V80.5936H183.396V71.4204Z" fill="#2E353A"/>
<path d="M183.396 53.0808H174.223V62.254H183.396V53.0808Z" fill="#2E353A"/>
<g opacity="0.1">
<path d="M64.1716 80.5936H54.9984V89.7668H64.1716V80.5936Z" fill="white"/>
<path d="M64.1716 62.254H54.9984V71.4272H64.1716V62.254Z" fill="white"/>
<path d="M73.338 71.4204H64.1648V80.5936H73.338V71.4204Z" fill="white"/>
<path d="M82.5112 80.5936H73.338V89.7668H82.5112V80.5936Z" fill="white"/>
<path d="M73.338 53.0808H64.1648V62.254H73.338V53.0808Z" fill="white"/>
<path d="M82.5112 62.254H73.338V71.4272H82.5112V62.254Z" fill="white"/>
<path d="M91.6844 71.4204H82.5112V80.5936H91.6844V71.4204Z" fill="white"/>
<path d="M100.858 80.5936H91.6844V89.7668H100.858V80.5936Z" fill="white"/>
<path d="M91.6844 53.0808H82.5112V62.254H91.6844V53.0808Z" fill="white"/>
<path d="M100.858 62.254H91.6844V71.4272H100.858V62.254Z" fill="white"/>
<path d="M110.024 71.4204H100.851V80.5936H110.024V71.4204Z" fill="white"/>
<path d="M119.197 80.5936H110.024V89.7668H119.197V80.5936Z" fill="white"/>
<path d="M110.024 53.0808H100.851V62.254H110.024V53.0808Z" fill="white"/>
<path d="M119.197 62.254H110.024V71.4272H119.197V62.254Z" fill="white"/>
<path d="M128.37 71.4204H119.197V80.5936H128.37V71.4204Z" fill="white"/>
<path d="M137.537 80.5936H128.364V89.7668H137.537V80.5936Z" fill="white"/>
<path d="M128.37 53.0808H119.197V62.254H128.37V53.0808Z" fill="white"/>
<path d="M137.537 62.254H128.364V71.4272H137.537V62.254Z" fill="white"/>
<path d="M146.71 71.4204H137.537V80.5936H146.71V71.4204Z" fill="white"/>
<path d="M155.883 80.5936H146.71V89.7668H155.883V80.5936Z" fill="white"/>
<path d="M146.71 53.0808H137.537V62.254H146.71V53.0808Z" fill="white"/>
<path d="M155.883 62.254H146.71V71.4272H155.883V62.254Z" fill="white"/>
<path d="M165.05 71.4204H155.876V80.5936H165.05V71.4204Z" fill="white"/>
<path d="M174.223 80.5936H165.05V89.7668H174.223V80.5936Z" fill="white"/>
<path d="M165.05 53.0808H155.876V62.254H165.05V53.0808Z" fill="white"/>
<path d="M174.223 62.254H165.05V71.4272H174.223V62.254Z" fill="white"/>
<path d="M183.396 71.4204H174.223V80.5936H183.396V71.4204Z" fill="white"/>
<path d="M183.396 53.0808H174.223V62.254H183.396V53.0808Z" fill="white"/>
</g>
<path d="M180.88 119.68C180.197 118.225 179.072 117.024 177.665 116.248C176.257 115.473 174.641 115.162 173.046 115.362C166.926 115.926 161.031 123.631 155.482 122.046C149.933 120.462 150.62 116.96 150.62 116.96C150.62 116.96 148.58 121.985 155.496 126.208C162.411 130.431 171.816 119.775 179.622 122.944L180.88 119.68Z" fill="#2E353A"/>
<path d="M180.88 119.68C180.21 117.92 179.054 116.385 177.547 115.255C176.04 114.125 174.244 113.445 172.366 113.295C165.825 112.785 161.996 121.054 156.985 119.68" stroke="#263238" stroke-width="0.480026" stroke-linecap="round" stroke-linejoin="round"/>
<path d="M195.922 128.962C195.922 128.962 198.247 119.36 190.189 117.402C182.131 115.444 178.5 120.19 177.14 125.419C175.78 130.648 179.18 137.931 186.504 136.728C193.827 135.524 195.629 131.24 195.922 128.962Z" fill="#2E353A"/>
<path d="M198.907 143.881C205.53 140.801 214.234 134.055 214.071 131.6C213.908 129.146 207.23 112.628 207.23 112.628C206.681 112.47 206.162 112.222 205.693 111.894C205.013 111.404 204.218 105.325 205.204 104.999C206.875 104.579 208.579 104.303 210.297 104.176C211.113 104.176 210.786 109.616 210.46 110.908C210.46 110.908 221.054 125.678 220.354 132.75C219.654 139.822 203.232 152.109 197.486 153.83C191.74 155.55 198.907 143.881 198.907 143.881Z" fill="#E4897B"/>
<path d="M127.031 224.332L128.908 220.334L134.776 222.292L140.162 224.101L138.706 229.208L132.518 226.63L127.031 224.332Z" fill="#E4897B"/>
<path d="M129.567 219.599C130.002 219.817 127.112 225.039 127.112 225.039C127.112 225.039 122.155 226.78 119.877 229.656C117.599 232.533 116.477 229.813 118.204 226.195L122.4 217.28C123.617 214.71 125.045 217.348 129.567 219.599Z" fill="#2E353A"/>
<path d="M124.93 228.215C124.889 228.221 124.848 228.221 124.807 228.215C124.69 228.209 124.578 228.167 124.486 228.096C124.393 228.024 124.325 227.925 124.29 227.814C124.1 227.066 125.786 225.638 126.126 225.359C126.145 225.341 126.169 225.329 126.194 225.325C126.228 225.329 126.261 225.341 126.29 225.359C126.337 225.406 127.384 226.454 127.344 227.331C127.337 227.462 127.303 227.591 127.243 227.708C127.183 227.825 127.099 227.928 126.997 228.011C126.92 228.097 126.818 228.156 126.706 228.181C126.594 228.205 126.476 228.193 126.371 228.147C126.099 227.997 125.99 227.467 125.963 226.93C125.847 227.368 125.611 227.766 125.283 228.079C125.181 228.157 125.058 228.204 124.93 228.215ZM125.984 225.882C125.27 226.522 124.508 227.372 124.624 227.725C124.624 227.725 124.658 227.848 124.896 227.895C124.941 227.902 124.987 227.899 125.032 227.888C125.076 227.876 125.118 227.855 125.154 227.827C125.535 227.542 125.834 226.549 125.984 225.882ZM126.351 225.835C126.276 226.78 126.351 227.752 126.575 227.875C126.643 227.916 126.772 227.82 126.84 227.766C126.912 227.711 126.97 227.641 127.011 227.561C127.052 227.481 127.075 227.393 127.078 227.304C126.996 226.75 126.742 226.236 126.351 225.835Z" fill="#407BFF"/>
<path opacity="0.2" d="M132.396 226.569L134.667 222.244L140.107 224.074L138.679 229.194L132.396 226.569Z" fill="black"/>
<path d="M195.922 197.758C193.46 208.42 182.451 244.807 165.322 243.447C148.192 242.087 135.66 232.662 135.32 228.364C134.98 224.067 136.299 221.7 140.57 221.687C144.84 221.673 157.372 225.522 162.833 225.134C168.293 224.747 173.4 201.559 173.4 201.559L195.922 197.758Z" fill="#407BFF"/>
<path opacity="0.4" d="M195.922 197.758C193.46 208.42 182.451 244.807 165.322 243.447C148.192 242.087 135.66 232.662 135.32 228.364C134.98 224.067 136.299 221.7 140.57 221.687C144.84 221.673 157.372 225.522 162.833 225.134C168.293 224.747 173.4 201.559 173.4 201.559L195.922 197.758Z" fill="black"/>
<path d="M239.612 274.067L235.552 275.822L232.451 270.463L229.609 265.547L234.083 262.684L237.007 268.709L239.612 274.067Z" fill="#E4897B"/>
<path d="M234.6 275.937C234.416 275.488 240.04 273.462 240.04 273.462C240.04 273.462 244.902 275.441 248.52 274.822C252.137 274.203 251.151 276.937 247.479 278.521L238.408 282.438C235.797 283.56 236.47 280.616 234.6 275.937Z" fill="#2E353A"/>
<path d="M241.4 273.979C241.261 273.992 241.122 274.012 240.985 274.04H240.897C240.845 274.024 240.797 273.998 240.754 273.965V273.911C240.759 273.898 240.759 273.883 240.754 273.87C240.754 273.87 240.754 273.87 240.754 273.829C240.754 273.829 240.788 273.788 240.788 273.768C240.788 273.707 240.713 272.224 241.325 271.592C241.417 271.493 241.531 271.416 241.657 271.366C241.783 271.317 241.918 271.297 242.053 271.306C242.361 271.306 242.551 271.408 242.624 271.612C242.733 271.905 242.468 272.36 242.121 272.796C242.506 272.546 242.953 272.407 243.413 272.394C243.591 272.413 243.755 272.501 243.868 272.639C243.953 272.728 244.009 272.84 244.031 272.961C244.052 273.082 244.039 273.206 243.991 273.319C243.664 273.87 242.162 273.979 241.4 273.979ZM243.304 272.7C242.622 272.845 241.985 273.153 241.448 273.598C242.406 273.598 243.542 273.455 243.712 273.136C243.712 273.136 243.766 273.02 243.624 272.83C243.594 272.792 243.557 272.762 243.515 272.741C243.473 272.72 243.426 272.708 243.379 272.707L243.304 272.7ZM242.032 271.34C241.849 271.34 241.699 271.551 241.577 271.68C241.263 272.175 241.114 272.755 241.148 273.34C241.828 272.66 242.427 271.803 242.332 271.551C242.304 271.498 242.266 271.452 242.219 271.416C242.172 271.379 242.118 271.354 242.06 271.34H242.032Z" fill="#407BFF"/>
<path opacity="0.2" d="M237.062 268.838L232.499 270.579L229.629 265.601L234.097 262.711L237.062 268.838Z" fill="black"/>
<path d="M175.243 176.61C175.243 176.61 165.723 190.74 167.688 201.266C170 213.69 199.92 227.678 208.08 233.859C216.24 240.04 220.062 263.384 230.221 267.859L235.749 265.88C235.749 265.88 238.564 261.99 236.463 255.374C227.623 227.63 220.32 214.37 195.922 197.758C195.922 197.758 197.526 184.307 196.853 177.494L175.243 176.61Z" fill="#407BFF"/>
<path opacity="0.3" d="M175.243 176.61C175.243 176.61 165.723 190.74 167.688 201.266C170 213.69 199.92 227.678 208.08 233.859C216.24 240.04 220.062 263.384 230.221 267.859L235.749 265.88C235.749 265.88 238.564 261.99 236.463 255.374C227.623 227.63 220.32 214.37 195.922 197.758C195.922 197.758 197.526 184.307 196.853 177.494L175.243 176.61Z" fill="black"/>
<path d="M232.818 266.927L231.458 267.417C228.371 263.486 225.848 256.401 223.203 248.962C220.395 241.08 217.491 232.934 214.071 229.697C211.691 227.446 206.414 223.904 200.301 219.796C187.823 211.412 173.672 201.912 172.727 196.119C171.727 189.958 174.876 181.159 176.759 176.671L178.214 176.732C176.426 180.968 173.094 189.931 174.073 195.901C174.923 201.11 190.026 211.262 201.056 218.668C207.223 222.809 212.541 226.379 215.009 228.711C218.661 232.172 221.49 240.101 224.482 248.506C227.066 255.762 229.731 263.248 232.818 266.927Z" fill="#407BFF"/>
<path opacity="0.1" d="M195.922 197.758C195.922 197.758 190.91 194.48 184.62 190.4L193.8 194.079C195.663 189.895 196.749 185.406 197.003 180.832C196.94 186.489 196.579 192.139 195.922 197.758Z" fill="black"/>
<path d="M175.243 176.61L197.003 178.84C197.003 178.84 202.191 158.848 202.32 142.066C202.32 142.066 193.984 144.786 186.49 143.874C178.996 142.963 172.366 139.06 172.366 139.06C172.366 139.06 175.896 160.949 175.243 176.61Z" fill="#2E353A"/>
<path d="M188.673 148.24C183.491 146.88 182.192 144.446 182.192 144.446C185.939 141.726 183.858 135.898 183.858 135.898L190.053 137.89C189.789 138.753 189.591 139.636 189.462 140.529C188.924 144.371 190.658 144.609 190.658 144.609C191.502 146.88 188.673 148.24 188.673 148.24Z" fill="#E4897B"/>
<path opacity="0.2" d="M190.053 137.89C189.789 138.753 189.591 139.636 189.462 140.529C185.178 139.978 183.858 135.898 183.858 135.898L190.053 137.89Z" fill="black"/>
<path d="M188.809 119.714C194.358 120.115 195.928 123.216 195.922 128.962C195.922 136.15 193.963 141.114 187.129 139.087C177.854 136.326 179.588 119.048 188.809 119.714Z" fill="#E4897B"/>
<path d="M192.358 128.398C192.741 129.259 193.227 130.069 193.807 130.812C193.627 131.029 193.392 131.193 193.125 131.285C192.859 131.377 192.573 131.395 192.297 131.335L192.358 128.398Z" fill="#DE5753"/>
<path d="M188.992 127.697C188.992 128.153 188.707 128.506 188.401 128.493C188.095 128.479 187.87 128.098 187.891 127.643C187.911 127.187 188.176 126.827 188.482 126.84C188.788 126.854 189.04 127.235 188.992 127.697Z" fill="#2E353A"/>
<path d="M188.36 126.854L189.373 126.514C189.373 126.514 188.829 127.33 188.36 126.854Z" fill="#2E353A"/>
<path d="M194.677 127.874C194.677 128.336 194.385 128.69 194.086 128.676C193.786 128.663 193.548 128.282 193.569 127.826C193.589 127.371 193.861 127.01 194.16 127.024C194.46 127.038 194.698 127.418 194.677 127.874Z" fill="#2E353A"/>
<path d="M194.038 127.038L195.044 126.698C195.044 126.698 194.514 127.507 194.038 127.038Z" fill="#2E353A"/>
<path d="M189.217 123.855C188.781 123.772 188.332 123.791 187.904 123.908C187.476 124.026 187.081 124.241 186.748 124.535" stroke="#263238" stroke-width="0.69573" stroke-linecap="round" stroke-linejoin="round"/>
<path d="M193.263 123.916C193.649 123.848 194.046 123.867 194.424 123.973C194.802 124.079 195.151 124.269 195.446 124.528" stroke="#263238" stroke-width="0.69573" stroke-linecap="round" stroke-linejoin="round"/>
<path d="M191.332 133.464C191.022 134.068 190.758 134.696 190.543 135.34C190.424 135.327 190.306 135.307 190.189 135.279C188.584 135 187.932 134.341 187.694 133.695C187.59 133.377 187.56 133.04 187.605 132.709C187.626 132.519 187.674 132.334 187.748 132.158C188.663 132.767 189.697 133.175 190.781 133.355C191.114 133.43 191.332 133.464 191.332 133.464Z" fill="#2E353A"/>
<path d="M190.781 133.355L190.536 133.906C189.026 133.64 188 133.226 187.605 132.709C187.626 132.519 187.674 132.334 187.748 132.158C188.663 132.767 189.696 133.175 190.781 133.355Z" fill="white"/>
<path d="M190.189 135.279C188.584 135 187.932 134.341 187.694 133.695C188.303 133.816 188.886 134.047 189.414 134.375C189.761 134.587 190.032 134.904 190.189 135.279Z" fill="#DE5753"/>
<path d="M182.063 128.629C182.063 128.629 184.987 124.256 184.851 120.707C184.851 120.707 196.173 117.008 195.908 128.187C195.908 128.187 197.703 118.347 188.176 117.436C178.65 116.525 177.684 130.492 182.308 135.007C182.308 135.034 180.254 131.362 182.063 128.629Z" fill="#2E353A"/>
<path d="M182.92 129.88C182.913 129.234 182.65 128.617 182.188 128.164C181.727 127.712 181.105 127.461 180.458 127.466C178.724 127.527 177.65 131.002 181.866 132.158C182.437 132.308 182.832 131.736 182.92 129.88Z" fill="#E4897B"/>
<path d="M172.38 139.06C172.38 139.06 176.283 145.622 174.168 152.742C174.168 152.742 159.12 135.993 157.76 132.172C156.4 128.35 166.199 106.59 166.199 106.59C166.199 106.59 164.56 102 164.9 100.98C165.24 99.96 169.49 97.58 170.51 98.26C171.53 98.94 171.19 106.42 170.68 107.44L170.17 108.46C170.17 108.46 164.934 128.18 165.594 129.615C166.253 131.05 172.38 139.06 172.38 139.06Z" fill="#E4897B"/>
<path d="M191.848 119.68C191.848 119.68 185.892 128.602 177.983 127.16C177.983 127.16 177.596 120.401 182.886 118.918C185.859 117.999 189.073 118.273 191.848 119.68Z" fill="#2E353A"/>
<path d="M190.781 119.68C190.781 119.68 193.263 123.406 186.504 125.875" stroke="#263238" stroke-width="0.480026" stroke-linecap="round" stroke-linejoin="round"/>
<path d="M193.372 119.415C193.372 119.415 196.221 122.026 197.397 118.286" stroke="#263238" stroke-width="0.480026" stroke-linecap="round" stroke-linejoin="round"/>
<path d="M198.621 171.809L199.24 170.768C199.24 170.768 198.478 170.537 197.159 170.231C197.717 166.43 199.424 152.048 195.255 142.718L194.48 143.31C194.48 143.31 196.411 146.268 196.608 152.068L182.192 151.98C182.192 151.98 180.54 143.908 178.493 141.426L177.976 141.664C181.057 150.358 182.095 159.644 181.009 168.803C178.734 168.935 176.474 169.251 174.25 169.748L174.801 170.768C178.863 170.308 182.954 170.144 187.041 170.279L194.616 170.959C195.956 171.19 197.309 171.462 198.621 171.809Z" fill="#407BFF"/>
<path opacity="0.6" d="M198.621 171.809L199.24 170.768C199.24 170.768 198.478 170.537 197.159 170.231C197.717 166.43 199.424 152.048 195.255 142.718L194.48 143.31C194.48 143.31 196.411 146.268 196.608 152.068L182.192 151.98C182.192 151.98 180.54 143.908 178.493 141.426L177.976 141.664C181.057 150.358 182.095 159.644 181.009 168.803C178.734 168.935 176.474 169.251 174.25 169.748L174.801 170.768C178.863 170.308 182.954 170.144 187.041 170.279L194.616 170.959C195.956 171.19 197.309 171.462 198.621 171.809Z" fill="white"/>
<path d="M190.067 162.602C190.112 163.263 189.913 163.919 189.509 164.444C189.285 164.669 189.014 164.842 188.715 164.951C188.417 165.061 188.098 165.103 187.782 165.077C187.476 165.1 187.169 165.056 186.881 164.95C186.594 164.843 186.333 164.675 186.116 164.458C185.71 163.959 185.508 163.325 185.552 162.683V162.438H187V162.778C186.971 163.039 187.047 163.301 187.211 163.506C187.285 163.578 187.374 163.634 187.471 163.67C187.568 163.706 187.672 163.722 187.775 163.717C187.889 163.724 188.003 163.706 188.109 163.663C188.215 163.621 188.31 163.556 188.387 163.472C188.562 163.197 188.639 162.871 188.605 162.547V160.806C188.49 161.068 188.299 161.289 188.056 161.44C187.813 161.591 187.53 161.664 187.245 161.65C187.007 161.666 186.77 161.624 186.553 161.526C186.336 161.429 186.146 161.28 186 161.092C185.692 160.611 185.546 160.044 185.586 159.474V157.76C185.544 157.115 185.754 156.479 186.17 155.985C186.643 155.578 187.246 155.354 187.87 155.354C188.494 155.354 189.098 155.578 189.57 155.985C189.987 156.479 190.197 157.115 190.155 157.76L190.067 162.602ZM187.796 160.29C187.899 160.295 188.003 160.279 188.1 160.243C188.197 160.207 188.285 160.151 188.36 160.079C188.524 159.874 188.599 159.612 188.571 159.351V157.638C188.585 157.509 188.573 157.38 188.537 157.256C188.501 157.132 188.441 157.017 188.36 156.917C188.201 156.785 188.002 156.713 187.796 156.713C187.589 156.713 187.39 156.785 187.231 156.917C187.15 157.017 187.09 157.132 187.054 157.256C187.018 157.38 187.006 157.509 187.02 157.638V159.351C186.992 159.612 187.067 159.874 187.231 160.079C187.306 160.151 187.394 160.207 187.491 160.243C187.588 160.279 187.692 160.295 187.796 160.29Z" fill="#407BFF"/>
<path d="M195.452 162.602C195.497 163.263 195.299 163.919 194.895 164.444C194.67 164.669 194.399 164.842 194.101 164.951C193.803 165.061 193.484 165.103 193.168 165.077C192.862 165.1 192.554 165.056 192.267 164.95C191.979 164.843 191.718 164.675 191.502 164.458C191.095 163.959 190.893 163.325 190.937 162.683V162.438H192.352V162.778C192.323 163.039 192.399 163.301 192.562 163.506C192.637 163.578 192.726 163.634 192.823 163.67C192.92 163.706 193.023 163.722 193.127 163.717C193.241 163.724 193.354 163.706 193.46 163.663C193.566 163.621 193.661 163.556 193.739 163.472C193.914 163.197 193.99 162.871 193.956 162.547V160.806C193.842 161.068 193.651 161.289 193.408 161.44C193.165 161.591 192.882 161.664 192.596 161.65C192.359 161.666 192.121 161.624 191.904 161.526C191.687 161.429 191.498 161.28 191.352 161.092C191.043 160.611 190.898 160.044 190.937 159.474V157.76C190.896 157.115 191.105 156.479 191.522 155.985C191.995 155.578 192.598 155.354 193.222 155.354C193.846 155.354 194.449 155.578 194.922 155.985C195.339 156.479 195.548 157.115 195.507 157.76L195.452 162.602ZM193.181 160.29C193.285 160.295 193.388 160.279 193.485 160.243C193.582 160.207 193.671 160.151 193.746 160.079C193.909 159.874 193.985 159.612 193.956 159.351V157.638C193.97 157.509 193.959 157.38 193.923 157.256C193.887 157.132 193.826 157.017 193.746 156.917C193.587 156.785 193.387 156.713 193.181 156.713C192.975 156.713 192.775 156.785 192.617 156.917C192.536 157.017 192.476 157.132 192.44 157.256C192.403 157.38 192.392 157.509 192.406 157.638V159.351C192.377 159.612 192.453 159.874 192.617 160.079C192.691 160.151 192.78 160.207 192.877 160.243C192.974 160.279 193.078 160.295 193.181 160.29Z" fill="#407BFF"/>
<path d="M297.16 159.12C295.8 158.671 270.64 148.165 238.068 158.039C229.602 160.602 220.626 163.846 211.949 166.988L204.891 169.531C203.572 170 201.239 170.891 201.042 172.251L203.177 177.378C207.556 175.855 209.766 175.025 214.261 173.4C222.856 170.292 231.751 167.076 240.047 164.56C256.366 159.581 273.768 159.369 290.204 163.948L292.06 162.758L291.156 161.16H293.651L291.156 159.12H297.16Z" fill="#407BFF"/>
<path d="M201.844 178.84C201.844 178.84 213.35 179.37 217.036 181.444L217.144 175.868C217.144 175.868 217.09 175.528 216.05 175.508C212.5 175.433 204.714 174.74 202.878 173.781C198.703 171.612 204.782 169.565 204.782 169.565C204.782 169.565 200.94 170.768 201.042 172.224C201.042 172.224 202.184 176.406 201.844 178.84Z" fill="#407BFF"/>
<path opacity="0.3" d="M201.844 178.84C201.844 178.84 213.35 179.37 217.036 181.444L217.144 175.868C217.144 175.868 217.09 175.528 216.05 175.508C212.5 175.433 204.714 174.74 202.878 173.781C198.703 171.612 204.782 169.565 204.782 169.565C204.782 169.565 200.94 170.768 201.042 172.224C201.042 172.224 202.184 176.406 201.844 178.84Z" fill="black"/>
<path d="M218.171 181.648C218.233 181.918 218.19 182.2 218.051 182.439C217.912 182.677 217.688 182.854 217.423 182.934C213.953 183.886 210.366 184.344 206.768 184.294C191.318 184.294 171.945 177.29 151.688 169.959C143.092 166.852 134.198 163.635 125.902 161.119C109.583 156.14 92.181 155.928 75.7453 160.507L73.8889 159.317L74.8001 157.76H72.3045L74.8001 155.72H68.6801C70.0401 155.271 95.2477 144.765 127.84 154.639C136.313 157.202 145.316 160.446 153.993 163.588C177.521 172.101 203.803 179.404 216.281 176.174C217.076 175.97 217.002 175.753 216.798 175.637C216.695 175.587 216.585 175.555 216.471 175.542C217.07 175.576 217.151 175.814 217.192 176.032C217.393 177.924 217.72 179.8 218.171 181.648Z" fill="#407BFF"/>
</svg>
