<svg width="344" height="339" viewBox="0 0 344 339" fill="none" xmlns="http://www.w3.org/2000/svg">
<path d="M344 259.267H0V259.437H344V259.267Z" fill="#EBEBEB"/>
<path d="M58.879 265.722H36.0925V265.892H58.879V265.722Z" fill="#EBEBEB"/>
<path d="M149.908 263.884H117.744V264.054H149.908V263.884Z" fill="#EBEBEB"/>
<path d="M90.8091 270.963H77.6064V271.133H90.8091V270.963Z" fill="#EBEBEB"/>
<path d="M235.668 268.02H214.883V268.19H235.668V268.02Z" fill="#EBEBEB"/>
<path d="M255.083 268.02H241.791V268.19H255.083V268.02Z" fill="#EBEBEB"/>
<path d="M309.538 270.881H269.249V271.051H309.538V270.881Z" fill="#EBEBEB"/>
<path d="M163.056 229.028H30.2101C29.1694 229.027 28.1719 228.618 27.4367 227.892C26.7014 227.166 26.2885 226.183 26.2885 225.157V41.1275C26.2975 40.1078 26.7145 39.1328 27.4488 38.4143C28.183 37.6958 29.1753 37.2917 30.2101 37.29H163.056C164.098 37.29 165.097 37.6979 165.834 38.4239C166.571 39.1499 166.984 40.1346 166.984 41.1614V225.157C166.984 226.184 166.571 227.168 165.834 227.895C165.097 228.621 164.098 229.028 163.056 229.028ZM30.2101 37.4256C29.215 37.4274 28.2613 37.8182 27.5583 38.5122C26.8553 39.2063 26.4605 40.1469 26.4605 41.1275V225.157C26.4605 226.138 26.8553 227.078 27.5583 227.772C28.2613 228.466 29.215 228.857 30.2101 228.859H163.056C164.052 228.857 165.006 228.466 165.71 227.773C166.414 227.079 166.811 226.138 166.812 225.157V41.1275C166.811 40.1462 166.414 39.2057 165.71 38.5118C165.006 37.818 164.052 37.4274 163.056 37.4256H30.2101Z" fill="#EBEBEB"/>
<path d="M311.877 229.028H179.024C177.983 229.027 176.985 228.618 176.249 227.893C175.512 227.167 175.098 226.183 175.096 225.157V41.1275C175.107 40.1072 175.525 39.1322 176.261 38.4138C176.996 37.6955 177.989 37.2917 179.024 37.29H311.877C312.911 37.2935 313.901 37.6983 314.634 38.4167C315.367 39.135 315.783 40.109 315.792 41.1275V225.157C315.792 226.181 315.38 227.164 314.646 227.89C313.913 228.615 312.917 229.025 311.877 229.028ZM179.024 37.4256C178.029 37.4274 177.074 37.818 176.37 38.5118C175.666 39.2057 175.27 40.1462 175.268 41.1275V225.157C175.27 226.138 175.666 227.079 176.37 227.773C177.074 228.466 178.029 228.857 179.024 228.859H311.877C312.873 228.857 313.827 228.466 314.532 227.773C315.236 227.079 315.632 226.138 315.634 225.157V41.1275C315.632 40.1462 315.236 39.2057 314.532 38.5118C313.827 37.818 312.873 37.4274 311.877 37.4256H179.024Z" fill="#EBEBEB"/>
<path d="M229.203 50.5893C232.105 39.3313 225.195 27.887 213.771 25.0279C202.347 22.1687 190.734 28.9773 187.833 40.2353C184.932 51.4933 191.841 62.9375 203.265 65.7967C214.689 68.6559 226.302 61.8473 229.203 50.5893Z" fill="#FAFAFA"/>
<path d="M292.971 54.24C293.08 54.2267 293.185 54.1922 293.281 54.1383C296.341 52.3111 299.831 51.2995 303.408 51.2026C307.178 51.2026 309.228 52.6942 308.864 54.8095C308.841 54.9311 308.847 55.0563 308.883 55.1749C308.919 55.2934 308.983 55.4019 309.07 55.4913C309.156 55.5807 309.263 55.6486 309.382 55.6892C309.5 55.7298 309.627 55.742 309.751 55.7248C310.207 55.6624 310.667 55.6306 311.127 55.6299C314.148 55.6299 315.359 57.1961 313.831 59.1284C313.756 59.2233 313.673 59.325 313.584 59.4199C313.51 59.4977 313.42 59.5595 313.32 59.6015C313.221 59.6435 313.114 59.6648 313.006 59.664H284.894C284.746 59.6666 284.6 59.6281 284.473 59.553C284.346 59.4779 284.243 59.3691 284.176 59.2391C284.108 59.1091 284.079 58.9631 284.092 58.8177C284.104 58.6723 284.158 58.5332 284.247 58.4165C285.898 56.3215 289.6 54.5993 292.971 54.24Z" fill="#F5F5F5"/>
<path d="M129.695 153.689C129.804 153.676 129.909 153.641 130.004 153.587C133.063 151.761 136.55 150.75 140.125 150.652C143.902 150.652 145.952 152.143 145.588 154.265C145.566 154.386 145.573 154.511 145.61 154.629C145.646 154.746 145.71 154.854 145.797 154.942C145.883 155.031 145.99 155.098 146.108 155.138C146.226 155.179 146.352 155.191 146.475 155.174C146.92 155.113 147.368 155.081 147.817 155.079C150.844 155.079 152.055 156.645 150.528 158.577C150.452 158.672 150.369 158.774 150.28 158.869C150.206 158.947 150.116 159.009 150.017 159.051C149.917 159.093 149.81 159.114 149.702 159.113H121.611C121.463 159.114 121.318 159.075 121.192 158.999C121.066 158.924 120.964 158.815 120.898 158.685C120.831 158.555 120.803 158.41 120.816 158.265C120.829 158.12 120.883 157.982 120.971 157.866C122.622 155.771 126.324 154.048 129.695 153.689Z" fill="#F5F5F5"/>
<path d="M127.521 26.3471C127.63 26.3338 127.735 26.2992 127.83 26.2454C130.891 24.4182 134.381 23.4066 137.958 23.3096C141.728 23.3096 143.778 24.8012 143.414 26.9166C143.392 27.0379 143.4 27.1626 143.436 27.2804C143.473 27.3983 143.536 27.5061 143.623 27.5951C143.709 27.6842 143.816 27.752 143.933 27.7931C144.051 27.8343 144.177 27.8475 144.301 27.8319C144.757 27.7694 145.217 27.7377 145.677 27.737C148.697 27.737 149.908 29.3032 148.381 31.2355C148.305 31.3304 148.223 31.4321 148.133 31.527C148.059 31.6048 147.97 31.6666 147.87 31.7086C147.771 31.7506 147.664 31.7719 147.555 31.7711H119.444C119.296 31.7736 119.15 31.7352 119.023 31.6601C118.896 31.5849 118.793 31.4762 118.725 31.3462C118.658 31.2162 118.629 31.0702 118.642 30.9248C118.654 30.7793 118.708 30.6403 118.797 30.5236C120.448 28.4285 124.15 26.7064 127.521 26.3471Z" fill="#F5F5F5"/>
<path d="M281.179 65.4609C280.944 65.461 280.717 65.3815 280.535 65.2358C280.354 65.09 280.229 64.887 280.181 64.6609C279.803 62.9523 277.691 61.8268 274.278 61.8268C273.516 61.8268 272.756 61.8766 272.001 61.976C271.752 62.0073 271.501 61.946 271.296 61.8043C271.091 61.6626 270.948 61.4506 270.893 61.2098C270.329 58.9589 267.494 57.4741 262.947 57.4741C256.755 57.4741 249.434 60.1861 245.155 63.8812C245.011 64.0047 244.835 64.0847 244.646 64.1117C240.717 64.6609 236.514 66.6813 234.615 69.0882C234.42 69.3341 234.245 69.5949 234.092 69.8679H284.557C286.469 67.4203 284.956 65.4609 281.179 65.4609Z" fill="#F5F5F5"/>
<path d="M47.2725 126.61C47.1288 126.611 46.9891 126.563 46.8774 126.474C46.7657 126.385 46.6889 126.26 46.6602 126.122C46.4262 125.071 45.1328 124.379 43.0413 124.379C42.581 124.382 42.1214 124.414 41.6653 124.474C41.5118 124.496 41.3554 124.461 41.2277 124.374C41.1 124.287 41.0105 124.156 40.9773 124.006C40.6264 122.65 38.9133 121.715 36.0994 121.715C32.1281 121.81 28.2988 123.189 25.2014 125.64C25.1101 125.714 25.0011 125.763 24.885 125.783C22.477 126.115 19.9038 127.356 18.7411 128.834C18.617 128.98 18.5086 129.139 18.4178 129.308H49.3778C50.513 127.81 49.5842 126.61 47.2725 126.61Z" fill="#F5F5F5"/>
<path d="M84.9267 159.628C78.2531 125.552 115.357 90.4723 107.101 78.7226C98.845 66.9728 63.523 52.4297 77.6064 77.292C91.6898 102.154 75.907 116.162 57.104 161.14C38.301 206.119 46.323 249.28 50.341 259.267H104.349C107.555 237.076 95.632 214.363 84.9267 159.628Z" fill="#E6E6E6"/>
<path d="M83.1517 169.5C94.1046 141.634 113.424 124.799 119.953 113.694C126.482 102.588 153.961 93.2047 138.439 113.524C122.918 133.844 101.975 135.688 110.128 172.456C118.281 209.224 125.746 251.104 120.861 259.24H76.7051C77.6546 241.124 65.5664 214.248 83.1517 169.5Z" fill="#E6E6E6"/>
<path d="M151.917 96.1675C158.749 95.2251 190.012 115.484 170.562 118.542C151.112 121.599 138.57 98.0117 151.917 96.1675Z" fill="#E6E6E6"/>
<path d="M142.932 90.9266C149.124 87.8959 185.278 97.3066 167.831 106.317C150.383 115.328 130.871 96.8659 142.932 90.9266Z" fill="#E6E6E6"/>
<path d="M137.834 85.028C144.714 85.1704 172.316 110.114 152.619 110.067C132.922 110.019 124.356 84.75 137.834 85.028Z" fill="#E6E6E6"/>
<path d="M136.313 86.9332C130.053 84.0923 94.1941 94.6352 111.924 103.097C129.654 111.558 148.56 92.486 136.313 86.9332Z" fill="#E6E6E6"/>
<path d="M145.464 100.113C154.408 101.239 186.703 137.363 161.123 134.644C135.543 131.925 128.002 97.91 145.464 100.113Z" fill="#E6E6E6"/>
<path d="M141.322 101.408C148.436 106.832 157.655 154.13 137.022 138.99C116.389 123.85 127.411 90.7706 141.322 101.408Z" fill="#E6E6E6"/>
<path d="M124.487 99.8287C117.607 102.466 99.1477 137.539 118.983 130.379C138.818 123.22 137.951 94.6624 124.487 99.8287Z" fill="#E6E6E6"/>
<path d="M124.074 96.6964C117.332 93.7267 79.0443 105.463 98.1501 114.324C117.256 123.186 137.27 102.493 124.074 96.6964Z" fill="#E6E6E6"/>
<path d="M75.6318 53.623C65.8072 49.9211 12.3358 69.5221 40.1586 80.6413C67.9813 91.7605 94.8408 60.864 75.6318 53.623Z" fill="#F0F0F0"/>
<path d="M90.816 48.8567C82.6976 42.2733 25.6486 44.1107 48.4627 63.3591C71.2768 82.6075 106.688 61.7455 90.816 48.8567Z" fill="#F0F0F0"/>
<path d="M100.448 41.8055C90.128 39.6969 40.4957 67.4407 69.7907 74.0512C99.0858 80.6617 120.572 45.9413 100.448 41.8055Z" fill="#F0F0F0"/>
<path d="M102.037 45.148C112.357 43.0327 161.99 70.7764 132.695 77.3869C103.4 83.9974 81.872 49.2838 102.037 45.148Z" fill="#F0F0F0"/>
<path d="M83.8603 61.6573C70.176 60.342 9.632 103.164 48.6141 107.727C87.5962 112.29 110.589 64.2676 83.8603 61.6573Z" fill="#F0F0F0"/>
<path d="M89.5707 64.9795C77.111 70.668 47.011 137.871 82.9384 122.304C118.866 106.738 113.94 53.8536 89.5707 64.9795Z" fill="#F0F0F0"/>
<path d="M115.144 68.2949C124.466 74.5393 139.747 132.902 112.77 115.585C85.7936 98.2693 96.9186 56.0909 115.144 68.2949Z" fill="#F0F0F0"/>
<path d="M116.85 63.7795C127.906 61.6438 180.751 91.9775 149.289 98.7032C117.827 105.429 95.2192 67.9627 116.85 63.7795Z" fill="#F0F0F0"/>
<path d="M264.288 179.385C258.936 152.062 288.678 123.938 282.059 114.521C275.441 105.104 247.13 93.442 258.42 113.368C269.71 133.295 257.044 144.556 241.976 180.592C226.909 216.628 233.335 251.26 236.555 259.24H279.858C282.431 241.476 272.888 223.265 264.288 179.385Z" fill="#E6E6E6"/>
<path d="M241.233 187.297C232.455 164.957 216.975 151.458 211.725 142.549C206.476 133.641 184.467 126.122 196.906 142.414C209.345 158.706 226.125 160.184 219.61 189.664C213.094 219.143 207.088 252.718 211.01 259.26H246.407C245.616 244.717 255.331 223.17 241.233 187.297Z" fill="#E6E6E6"/>
<path d="M219.376 118.65C224.577 113.829 263.304 112.548 248.733 126.596C234.161 140.644 209.214 128.081 219.376 118.65Z" fill="#E6E6E6"/>
<path d="M208.595 119.518C211.973 113.314 248.272 99.944 238.991 117.85C229.709 135.756 202.004 131.647 208.595 119.518Z" fill="#E6E6E6"/>
<path d="M200.71 117.538C206.62 113.592 245.066 118.379 228.402 129.986C211.739 141.594 189.152 125.254 200.71 117.538Z" fill="#E6E6E6"/>
<path d="M200.58 120.04C193.562 121.335 169.62 151.384 189.771 148.089C209.923 144.794 214.305 117.518 200.58 120.04Z" fill="#E6E6E6"/>
<path d="M216.314 125.789C224.57 121.47 273.79 132.969 250.515 145.743C227.24 158.516 200.208 134.244 216.314 125.789Z" fill="#E6E6E6"/>
<path d="M213.596 129.322C222.912 129.729 259.417 164.266 232.785 163.629C206.152 162.991 195.392 128.535 213.596 129.322Z" fill="#E6E6E6"/>
<path d="M198.412 137.912C194.195 144.204 199.885 184.735 212.289 166.998C224.694 149.262 206.655 125.613 198.412 137.912Z" fill="#E6E6E6"/>
<path d="M196.156 135.512C188.656 136.956 163.421 169.5 184.934 165.69C206.448 161.879 210.831 132.63 196.156 135.512Z" fill="#E6E6E6"/>
<path d="M288.533 101.11C296.955 101.49 329.896 132.8 305.809 132.169C281.722 131.539 272.063 100.344 288.533 101.11Z" fill="#F0F0F0"/>
<path d="M278.929 92.8114C287.034 90.5333 328.369 109.897 305.334 116.847C282.3 123.796 263.071 97.2659 278.929 92.8114Z" fill="#F0F0F0"/>
<path d="M274.147 84.5941C282.403 86.2891 309.868 122.365 286.187 117.972C262.506 113.579 258 81.2719 274.147 84.5941Z" fill="#F0F0F0"/>
<path d="M271.884 86.5399C265.004 81.7329 219.493 86.4314 238.86 100.547C258.227 114.663 285.334 95.937 271.884 86.5399Z" fill="#F0F0F0"/>
<path d="M279.872 104.412C290.343 107.755 320.904 158.36 290.79 149.404C260.676 140.448 259.376 97.8829 279.872 104.412Z" fill="#F0F0F0"/>
<path d="M274.595 105.049C281.901 113.185 282.163 172.056 260.835 149.275C239.507 126.494 260.305 89.1773 274.595 105.049Z" fill="#F0F0F0"/>
<path d="M254.718 99.4084C245.843 101.049 215.626 139.112 241.082 134.908C266.538 130.705 272.083 96.1946 254.718 99.4084Z" fill="#F0F0F0"/>
<path d="M254.938 95.5505C247.515 90.4859 198.804 96.0794 219.74 110.961C240.676 125.844 269.469 105.456 254.938 95.5505Z" fill="#F0F0F0"/>
<path d="M172 289.886C245.673 289.886 305.396 286.449 305.396 282.211C305.396 277.972 245.673 274.536 172 274.536C98.3273 274.536 38.6037 277.972 38.6037 282.211C38.6037 286.449 98.3273 289.886 172 289.886Z" fill="#F5F5F5"/>
<path d="M284.921 230.974C283.415 232.154 281.997 233.395 280.642 234.676C281.034 233.781 281.42 232.886 281.791 231.998C295.682 198.986 285.513 188.253 269.593 212.777C270.928 204.444 271.602 196.552 271.134 190.009C269.008 160.116 251.808 170.178 248.691 204.959C248.34 208.899 247.859 213.739 247.315 219.035C246.941 215.506 246.373 212.001 245.616 208.532C239.004 178.639 223.311 188.687 225.409 223.482C226.565 242.67 231.313 269.369 232.572 276.204C232.657 276.671 232.909 277.094 233.282 277.395C233.656 277.696 234.126 277.855 234.608 277.844H263.986C264.36 277.843 264.726 277.741 265.046 277.55C265.366 277.359 265.627 277.086 265.802 276.76C267.955 272.658 276.232 257.728 288.368 245.897C310.666 224.16 307.041 213.57 284.921 230.974Z" fill="#407BFF"/>
<path opacity="0.2" d="M284.921 230.974C283.415 232.154 281.997 233.395 280.642 234.676C281.034 233.781 281.42 232.886 281.791 231.998C295.682 198.986 285.513 188.253 269.593 212.777C270.928 204.444 271.602 196.552 271.134 190.009C269.008 160.116 251.808 170.178 248.691 204.959C248.34 208.899 247.859 213.739 247.315 219.035C246.941 215.506 246.373 212.001 245.616 208.532C239.004 178.639 223.311 188.687 225.409 223.482C226.565 242.67 231.313 269.369 232.572 276.204C232.657 276.671 232.909 277.094 233.282 277.395C233.656 277.696 234.126 277.855 234.608 277.844H263.986C264.36 277.843 264.726 277.741 265.046 277.55C265.366 277.359 265.627 277.086 265.802 276.76C267.955 272.658 276.232 257.728 288.368 245.897C310.666 224.16 307.041 213.57 284.921 230.974Z" fill="black"/>
<path d="M207.611 252.602C207.818 253.406 208.123 254.182 208.519 254.914C214.291 265.701 227.336 253.972 231.457 243.009C223.965 241.151 214.057 242.188 209.654 246.121L213.837 232.825C214.044 233.629 214.349 234.406 214.745 235.137C220.511 245.931 233.555 234.195 237.676 223.232C230.184 221.374 220.277 222.418 215.874 226.344L220.057 213.055C220.263 213.857 220.568 214.631 220.965 215.36C226.73 226.154 239.775 214.417 243.903 203.454C236.404 201.603 226.496 202.641 222.093 206.566L226.276 193.277C226.484 194.081 226.789 194.857 227.184 195.589C232.95 206.376 245.994 194.647 250.122 183.684C242.623 181.826 232.723 182.863 228.32 186.796L232.496 173.5C232.703 174.304 233.008 175.08 233.404 175.812C239.176 186.599 252.214 174.87 256.342 163.907C248.85 162.049 238.942 163.086 234.539 167.019L238.736 153.723C238.942 154.527 239.247 155.303 239.644 156.035C245.41 166.829 258.454 155.093 262.575 144.129C255.083 142.272 245.176 143.309 240.772 147.241L242.265 142.495C250.707 139.783 244.123 128.352 236.589 123.443C232.64 130.996 232.393 143.302 239.968 142.943L236.073 155.262C234.697 149.567 227.129 143.187 219.878 140.536C216.988 151.879 221.006 168.822 231.959 163.14C232.702 162.759 233.395 162.29 234.023 161.744L229.847 175.032C228.471 169.337 220.903 162.964 213.652 160.313C210.755 171.656 214.78 188.599 225.733 182.918C226.474 182.533 227.167 182.065 227.797 181.521L223.6 194.817C222.224 189.121 214.656 182.741 207.404 180.097C204.515 191.433 208.54 208.383 219.486 202.702C220.228 202.317 220.921 201.846 221.55 201.298L217.408 214.594C216.032 208.899 208.464 202.519 201.212 199.874C198.323 211.211 202.348 228.161 213.294 222.472C214.038 222.092 214.731 221.623 215.358 221.075L211.216 234.371C209.84 228.676 202.272 222.296 195.02 219.652C192.131 230.988 196.149 247.938 207.102 242.249C207.844 241.868 208.537 241.399 209.166 240.853L204.99 254.142C203.614 248.446 196.046 242.073 188.794 239.422C185.898 250.765 189.922 267.708 200.875 262.027C201.618 261.645 202.311 261.176 202.939 260.63L198.811 273.668C198.73 273.926 198.756 274.205 198.884 274.444C199.012 274.683 199.231 274.863 199.492 274.943C199.754 275.023 200.038 274.997 200.28 274.871C200.523 274.745 200.705 274.529 200.786 274.271L207.611 252.602Z" fill="#407BFF"/>
<path opacity="0.7" d="M207.611 252.602C207.818 253.406 208.123 254.182 208.519 254.914C214.291 265.701 227.336 253.972 231.457 243.009C223.965 241.151 214.057 242.188 209.654 246.121L213.837 232.825C214.044 233.629 214.349 234.406 214.745 235.137C220.511 245.931 233.555 234.195 237.676 223.232C230.184 221.374 220.277 222.418 215.874 226.344L220.057 213.055C220.263 213.857 220.568 214.631 220.965 215.36C226.73 226.154 239.775 214.417 243.903 203.454C236.404 201.603 226.496 202.641 222.093 206.566L226.276 193.277C226.484 194.081 226.789 194.857 227.184 195.589C232.95 206.376 245.994 194.647 250.122 183.684C242.623 181.826 232.723 182.863 228.32 186.796L232.496 173.5C232.703 174.304 233.008 175.08 233.404 175.812C239.176 186.599 252.214 174.87 256.342 163.907C248.85 162.049 238.942 163.086 234.539 167.019L238.736 153.723C238.942 154.527 239.247 155.303 239.644 156.035C245.41 166.829 258.454 155.093 262.575 144.129C255.083 142.272 245.176 143.309 240.772 147.241L242.265 142.495C250.707 139.783 244.123 128.352 236.589 123.443C232.64 130.996 232.393 143.302 239.968 142.943L236.073 155.262C234.697 149.567 227.129 143.187 219.878 140.536C216.988 151.879 221.006 168.822 231.959 163.14C232.702 162.759 233.395 162.29 234.023 161.744L229.847 175.032C228.471 169.337 220.903 162.964 213.652 160.313C210.755 171.656 214.78 188.599 225.733 182.918C226.474 182.533 227.167 182.065 227.797 181.521L223.6 194.817C222.224 189.121 214.656 182.741 207.404 180.097C204.515 191.433 208.54 208.383 219.486 202.702C220.228 202.317 220.921 201.846 221.55 201.298L217.408 214.594C216.032 208.899 208.464 202.519 201.212 199.874C198.323 211.211 202.348 228.161 213.294 222.472C214.038 222.092 214.731 221.623 215.358 221.075L211.216 234.371C209.84 228.676 202.272 222.296 195.02 219.652C192.131 230.988 196.149 247.938 207.102 242.249C207.844 241.868 208.537 241.399 209.166 240.853L204.99 254.142C203.614 248.446 196.046 242.073 188.794 239.422C185.898 250.765 189.922 267.708 200.875 262.027C201.618 261.645 202.311 261.176 202.939 260.63L198.811 273.668C198.73 273.926 198.756 274.205 198.884 274.444C199.012 274.683 199.231 274.863 199.492 274.943C199.754 275.023 200.038 274.997 200.28 274.871C200.523 274.745 200.705 274.529 200.786 274.271L207.611 252.602Z" fill="white"/>
<path d="M166.929 272.434C145.987 258.725 81.1427 212.261 58.0466 148.685C58.2392 153.811 60.1106 160.137 63.3098 167.242C55.7057 160.087 48.8657 152.184 42.8968 143.655C48.1875 158.164 57.4205 168.259 63.6125 173.799C56.5369 168.607 49.9242 162.83 43.8462 156.53C53.1755 173.324 67.4446 182.457 73.3821 185.718L73.4371 185.806C60.9995 179.571 49.3146 171.975 38.6037 163.161C45.3192 172.957 53.8845 181.389 63.8326 187.996C57.5984 184.635 51.6344 180.809 45.9928 176.551C54.2488 188.186 65.3118 196.952 74.5998 202.925C62.3294 196.733 50.5497 189.64 39.3605 181.704C57.5581 206.397 90.2725 218.913 100.737 222.418C80.397 216.001 60.7416 207.643 42.0506 197.461C53.6296 209.787 68.5867 218.479 82.1816 224.493C72.1067 220.996 62.2748 216.854 52.749 212.092C67.823 227.381 90.8504 238.093 107.596 244.405C94.9751 240.972 82.7696 236.198 71.1942 230.167C82.044 243.049 97.5446 250.338 111.229 254.453C100.278 251.867 89.5424 248.468 79.1131 244.283C92.8731 257.64 112.082 263.857 127.383 266.739C116.052 265.383 102.079 262.996 88.5525 258.691C114.132 280.312 160.407 277.926 160.407 277.926L165.684 277.39C166.248 277.334 166.781 277.107 167.209 276.74C167.637 276.374 167.94 275.886 168.077 275.344C168.213 274.801 168.176 274.231 167.971 273.71C167.765 273.189 167.402 272.743 166.929 272.434Z" fill="#407BFF"/>
<path d="M198.522 246.202C195.715 240.304 192.578 234.127 189.138 227.74L182.32 235.049L186.696 223.231C183.531 217.487 180.134 211.599 176.506 205.57L169.076 213.645L174.284 201.908C170.321 195.447 166.276 189.128 162.182 183.019L156.259 191.298L158.178 177.1C154.431 171.649 150.674 166.392 146.909 161.33L141.191 170.666L143.524 156.821C138.584 150.326 133.685 144.244 128.917 138.651L123.62 145.431L125.622 134.827C119.877 128.284 114.352 122.515 109.192 117.687L106.977 124.203L106.84 115.538C96.7053 106.412 88.1328 101.178 82.3536 101.178C76.712 101.178 74.421 106.161 75.0952 114.887L91.2426 124.074L75.5837 119.05C76.7175 125.478 78.4046 131.8 80.6267 137.946L100.063 148.007L82.9522 144.306C85.6147 151.235 88.9102 158.808 92.8043 166.883L112.24 175.344L95.3568 172.09C98.6179 178.612 102.237 185.426 106.207 192.43L126.668 199.142L109.874 198.823C111.208 201.115 112.584 203.425 114.002 205.753C115.634 208.465 117.286 211.154 118.955 213.821L138.976 220.486L121.666 218.119C124.812 223.064 127.989 227.889 131.195 232.595L151.835 240.093L134.91 237.992C139.375 244.378 143.854 250.494 148.292 256.298L168.333 261.084L151.484 260.406C154.841 264.678 158.157 268.746 161.432 272.61C164.239 275.912 168.395 278.034 172.089 278.034H202.272C207.494 278.034 210.136 273.871 208.196 268.719C205.967 262.8 203.263 256.392 200.112 249.599L191.732 255.701L198.522 246.202Z" fill="#407BFF"/>
<path opacity="0.4" d="M198.522 246.202C195.715 240.304 192.578 234.127 189.138 227.74L182.32 235.049L186.696 223.231C183.531 217.487 180.134 211.599 176.506 205.57L169.076 213.645L174.284 201.908C170.321 195.447 166.276 189.128 162.182 183.019L156.259 191.298L158.178 177.1C154.431 171.649 150.674 166.392 146.909 161.33L141.191 170.666L143.524 156.821C138.584 150.326 133.685 144.244 128.917 138.651L123.62 145.431L125.622 134.827C119.877 128.284 114.352 122.515 109.192 117.687L106.977 124.203L106.84 115.538C96.7053 106.412 88.1328 101.178 82.3536 101.178C76.712 101.178 74.421 106.161 75.0952 114.887L91.2426 124.074L75.5837 119.05C76.7175 125.478 78.4046 131.8 80.6267 137.946L100.063 148.007L82.9522 144.306C85.6147 151.235 88.9102 158.808 92.8043 166.883L112.24 175.344L95.3568 172.09C98.6179 178.612 102.237 185.426 106.207 192.43L126.668 199.142L109.874 198.823C111.208 201.115 112.584 203.425 114.002 205.753C115.634 208.465 117.286 211.154 118.955 213.821L138.976 220.486L121.666 218.119C124.812 223.064 127.989 227.889 131.195 232.595L151.835 240.093L134.91 237.992C139.375 244.378 143.854 250.494 148.292 256.298L168.333 261.084L151.484 260.406C154.841 264.678 158.157 268.746 161.432 272.61C164.239 275.912 168.395 278.034 172.089 278.034H202.272C207.494 278.034 210.136 273.871 208.196 268.719C205.967 262.8 203.263 256.392 200.112 249.599L191.732 255.701L198.522 246.202Z" fill="white"/>
<path d="M196.603 116.453C197.711 120.148 198.777 123.911 199.809 127.606C200.841 131.301 201.873 135.064 202.932 138.685L203.325 139.96C203.325 139.96 203.249 139.912 203.263 139.96C203.511 140.266 203.839 140.5 204.212 140.638C205.701 141.241 207.269 141.632 208.87 141.797C210.708 142.024 212.556 142.16 214.408 142.204C215.351 142.204 216.307 142.258 217.264 142.258L220.112 142.224L220.848 146.448C216.838 147.615 212.692 148.267 208.512 148.387C206.162 148.477 203.814 148.179 201.563 147.506C200.048 147.048 198.669 146.234 197.545 145.133C196.849 144.427 196.299 143.593 195.929 142.678L195.344 141.207C193.899 137.451 192.661 133.749 191.464 130.007C190.266 126.264 189.172 122.548 188.168 118.731L196.603 116.453Z" fill="#CE7A63"/>
<path d="M186.255 114.521C183.71 119.579 191.856 136.217 191.856 136.217L202.313 132.149C202.313 132.149 201.9 124.23 199.369 117.369C196.699 110.1 189.083 108.9 186.255 114.521Z" fill="#263238"/>
<path opacity="0.2" d="M185.994 115.165C188.464 114.358 190.961 115.579 193.053 120.223C195.144 124.867 196.376 132.359 196.307 134.461L191.856 136.197C191.856 136.197 184.24 120.799 185.994 115.165Z" fill="black"/>
<path d="M218.818 142.8L221.963 140.285C222.353 139.973 222.805 139.743 223.29 139.611C223.774 139.478 224.282 139.445 224.78 139.513C225.278 139.582 225.756 139.751 226.186 140.01C226.615 140.268 226.985 140.611 227.274 141.017C227.642 141.538 227.864 142.145 227.919 142.778C227.974 143.41 227.859 144.046 227.585 144.621C227.312 145.196 226.89 145.69 226.362 146.053C225.834 146.417 225.219 146.637 224.577 146.692C223.036 146.796 221.489 146.74 219.96 146.523L218.818 142.8Z" fill="#CE7A63"/>
<path d="M193.81 111.362C193.81 111.362 198.626 129.891 187.92 162.049L156.114 158.245C156.451 153.933 161.226 135.098 160.93 114.602C160.915 113.574 161.111 112.554 161.507 111.603C161.904 110.652 162.492 109.79 163.236 109.069C163.98 108.348 164.865 107.784 165.837 107.41C166.809 107.036 167.847 106.86 168.89 106.893C169.716 106.893 170.548 106.961 171.381 107.022C175.915 107.303 180.429 107.842 184.9 108.636C187.937 109.316 190.916 110.227 193.81 111.362Z" fill="#263238"/>
<path opacity="0.2" d="M166.558 109.246C165.555 108.744 164.393 108.644 163.317 108.968C162.536 109.688 161.916 110.561 161.499 111.532C161.081 112.502 160.876 113.548 160.896 114.602C160.958 118.481 160.834 122.304 160.593 125.972C162.144 124.987 163.616 123.885 164.996 122.677C170.803 117.619 171.814 112.385 166.558 109.246Z" fill="black"/>
<path d="M174.532 92.208C174.855 96.5947 174.738 104.548 171.346 107.049C175.296 109.294 177.236 112.568 181.742 113.382C185.251 114.019 185.574 110.602 184.866 108.636C180.153 106.914 180.738 103.381 181.969 100.154L174.532 92.208Z" fill="#CE7A63"/>
<path opacity="0.2" d="M177.566 95.4285L181.969 100.175C181.67 100.926 181.44 101.702 181.281 102.493C179.458 102.005 177.153 99.6999 177.201 97.7473C177.179 96.959 177.303 96.1733 177.566 95.4285Z" fill="black"/>
<path d="M174.807 85.6653C174.456 91.5097 173.947 94.92 176.555 98.2558C180.476 103.273 188.079 101.483 190.198 95.8557C192.103 90.791 192.365 82.0787 186.881 79.0819C185.676 78.4147 184.318 78.0622 182.935 78.0578C181.553 78.0535 180.192 78.3974 178.982 79.057C177.772 79.7166 176.754 80.6699 176.023 81.8265C175.292 82.983 174.874 84.3045 174.807 85.6653Z" fill="#CE7A63"/>
<path d="M174.552 90.7232C174.552 90.7232 177.497 89.7943 177.167 85.7534C178.034 83.5025 188.12 81.9634 188.12 81.9634C188.12 81.9634 188.808 82.5601 190.28 81.2041C193.589 78.187 188.079 74.6681 182.767 74.3495C183.014 74.8204 183.295 75.2736 183.607 75.7055C183.607 75.7055 176.438 74.5664 172.158 76.8716C172.642 77.0438 173.151 77.1332 173.665 77.1361C171.668 78.3671 169.821 79.8209 168.161 81.4685C171.739 83.4618 172.977 83.7805 172.977 83.7805L173.039 87.8078L174.552 90.7232Z" fill="#263238"/>
<path d="M172.578 83.9771C172.268 85.2662 172.369 86.6179 172.867 87.8485C172.965 88.04 173.134 88.1863 173.34 88.256C173.546 88.3257 173.771 88.3133 173.968 88.2214C175.839 87.3535 179.795 85.1365 184.322 84.2483C186.171 83.8716 188.071 83.8006 189.943 84.0381C190.081 84.0547 190.221 84.0374 190.35 83.9877C190.479 83.938 190.594 83.8575 190.684 83.7534C190.774 83.6492 190.836 83.5247 190.865 83.391C190.895 83.2573 190.89 83.1186 190.851 82.9872C190.579 82.0127 190.132 81.0941 189.53 80.2752C189.453 80.1773 189.356 80.0957 189.247 80.0351C189.137 79.9746 189.016 79.9363 188.89 79.9226C184.178 79.3938 180.696 79.787 173.066 83.3465C172.943 83.41 172.835 83.4993 172.751 83.6083C172.667 83.7172 172.607 83.8431 172.578 83.9771Z" fill="#407BFF"/>
<path d="M171.36 91.747C172.002 93.0778 173.152 94.104 174.559 94.6013C176.424 95.2793 177.49 93.6318 177.077 91.8283C176.706 90.2011 175.282 87.9095 173.355 88.0451C171.429 88.1807 170.624 90.1062 171.36 91.747Z" fill="#CE7A63"/>
<path d="M175.509 162.042C175.509 162.042 162.684 203.115 155.089 219.503C147.191 236.541 121.033 273.831 121.033 273.831L116.334 270.8C116.334 270.8 134.222 233.137 141.563 216.235C144.624 205.658 157.793 159.208 157.793 159.208L175.509 162.042Z" fill="#CE7A63"/>
<path d="M123.035 271.803L117.469 268.081C117.366 268.009 117.241 267.975 117.115 267.985C116.989 267.995 116.871 268.048 116.781 268.135L112.832 271.824C112.737 271.915 112.664 272.026 112.618 272.149C112.573 272.271 112.556 272.403 112.568 272.533C112.581 272.663 112.623 272.788 112.691 272.9C112.759 273.012 112.852 273.108 112.963 273.18C114.93 274.448 115.563 275.058 118.013 276.692C119.519 277.695 124.205 282.034 126.723 282.197C129.241 282.36 129.475 280.401 127.947 279.872C123.489 278.333 124.101 274.543 123.62 272.644C123.538 272.302 123.33 272.002 123.035 271.803Z" fill="#263238"/>
<path d="M125.828 273.817C125.857 273.781 125.882 273.742 125.904 273.702C125.95 273.628 125.974 273.544 125.974 273.458C125.974 273.372 125.95 273.287 125.904 273.214C125.546 272.576 123.427 272.468 123.001 272.454C122.968 272.453 122.936 272.461 122.908 272.477C122.88 272.494 122.858 272.518 122.844 272.547C122.83 272.576 122.825 272.608 122.829 272.64C122.834 272.672 122.848 272.702 122.87 272.726C123.4 273.302 124.404 274.251 125.195 274.17C125.321 274.16 125.442 274.124 125.552 274.063C125.661 274.002 125.756 273.918 125.828 273.817ZM123.434 272.807C124.356 272.875 125.498 273.071 125.629 273.376C125.629 273.41 125.663 273.451 125.629 273.539C125.585 273.619 125.524 273.687 125.448 273.739C125.373 273.791 125.286 273.825 125.195 273.837C124.776 273.912 124.136 273.498 123.434 272.807Z" fill="white"/>
<path d="M125.656 271.932C125.684 271.893 125.709 271.852 125.732 271.81C125.775 271.708 125.781 271.593 125.748 271.487C125.715 271.381 125.647 271.289 125.553 271.227C125.469 271.154 125.371 271.1 125.264 271.067C125.157 271.034 125.045 271.024 124.934 271.037C124.026 271.119 122.932 272.454 122.87 272.515C122.851 272.538 122.839 272.566 122.835 272.596C122.831 272.625 122.835 272.655 122.847 272.682C122.859 272.71 122.879 272.733 122.903 272.75C122.928 272.767 122.957 272.778 122.987 272.78C123.661 272.848 125.216 272.488 125.656 271.932ZM123.386 272.448C123.792 271.944 124.34 271.569 124.961 271.369C125.028 271.36 125.095 271.365 125.159 271.384C125.223 271.403 125.282 271.435 125.333 271.478C125.464 271.586 125.429 271.647 125.422 271.681C125.278 272.014 124.143 272.386 123.386 272.448Z" fill="white"/>
<path d="M187.714 165.012C187.714 165.012 205.072 187.06 211.264 203.773C214.271 211.909 189.379 247.226 189.379 247.226L186.283 242.731C185.423 243.117 193.507 218.289 199.568 208.77C188.698 193.21 171.36 174.87 171.36 174.87L187.714 165.012Z" fill="#CE7A63"/>
<path d="M190.659 245.755L186.31 240.69C186.233 240.6 186.127 240.538 186.009 240.516C185.891 240.494 185.769 240.512 185.664 240.568L180.848 243.07C180.729 243.132 180.625 243.22 180.546 243.327C180.466 243.434 180.412 243.558 180.389 243.688C180.365 243.819 180.371 243.953 180.408 244.081C180.445 244.209 180.51 244.327 180.6 244.426C182.148 246.161 182.994 246.934 184.907 249.172C186.083 250.528 190.074 255.47 191.697 257.355C193.321 259.24 195.433 257.911 194.938 256.996C192.729 252.88 190.954 248.697 191.016 246.745C191.026 246.382 190.899 246.029 190.659 245.755Z" fill="#263238"/>
<path d="M192.791 248.44C192.831 248.412 192.868 248.38 192.901 248.345C192.968 248.289 193.017 248.217 193.044 248.135C193.07 248.054 193.073 247.967 193.053 247.884C192.888 247.172 190.872 246.528 190.466 246.378C190.435 246.37 190.401 246.369 190.37 246.378C190.338 246.386 190.31 246.403 190.287 246.426C190.27 246.453 190.261 246.485 190.261 246.517C190.261 246.55 190.27 246.581 190.287 246.609C190.638 247.287 191.353 248.48 192.138 248.609C192.253 248.627 192.37 248.621 192.483 248.592C192.595 248.563 192.7 248.511 192.791 248.44ZM190.769 246.826C191.636 247.145 192.647 247.626 192.729 247.958C192.729 247.958 192.729 248.04 192.668 248.107C192.606 248.174 192.528 248.225 192.442 248.256C192.356 248.287 192.263 248.296 192.172 248.284C191.766 248.216 191.264 247.68 190.769 246.826Z" fill="white"/>
<path d="M193.142 246.541C193.18 246.513 193.214 246.481 193.245 246.446C193.317 246.36 193.356 246.252 193.356 246.141C193.356 246.03 193.317 245.922 193.245 245.836C193.184 245.743 193.105 245.664 193.011 245.604C192.918 245.543 192.812 245.502 192.702 245.483C191.808 245.328 190.383 246.324 190.321 246.365C190.298 246.383 190.279 246.407 190.267 246.434C190.255 246.461 190.25 246.491 190.253 246.521C190.257 246.551 190.269 246.58 190.289 246.604C190.308 246.627 190.334 246.646 190.363 246.656C190.975 246.894 192.585 246.962 193.142 246.541ZM190.817 246.439C191.345 246.056 191.978 245.839 192.633 245.816C192.698 245.826 192.761 245.849 192.816 245.884C192.872 245.919 192.92 245.965 192.956 246.019C193.046 246.155 193.005 246.209 192.956 246.236C192.757 246.521 191.56 246.582 190.817 246.439Z" fill="white"/>
<path d="M187.92 162.042C187.92 162.042 196.809 174.395 201.79 185.291C198.35 186.579 191.126 192.423 189.633 195.739C177.937 184.253 166.241 171.941 166.241 171.941L175.062 160.503L187.92 162.042Z" fill="#263238"/>
<path opacity="0.2" d="M172.908 170.978L172.151 178.104C174.511 180.538 177.421 183.528 180.586 186.728C178.192 178.314 172.908 170.978 172.908 170.978Z" fill="black"/>
<path d="M181.054 161.228C181.054 161.228 166.702 190.443 164.074 196.444C161.322 195.21 151.842 191.854 148.56 191.969C148.601 188.457 156.128 158.245 156.128 158.245L181.054 161.228Z" fill="#263238"/>
<path d="M183.545 88.357C183.49 88.8316 183.696 89.2451 184.006 89.279C184.315 89.3129 184.625 88.9672 184.694 88.4926C184.762 88.018 184.542 87.6044 184.233 87.5705C183.923 87.5366 183.6 87.8824 183.545 88.357Z" fill="#263238"/>
<path d="M188.966 89.0078C188.904 89.4757 189.117 89.8892 189.427 89.9299C189.737 89.9706 190.046 89.6113 190.115 89.1434C190.184 88.6756 189.964 88.2553 189.654 88.2146C189.344 88.1739 189.021 88.5332 188.966 89.0078Z" fill="#263238"/>
<path d="M187.212 89.035C187.607 90.5466 188.211 91.9975 189.007 93.347C188.065 94.025 186.661 93.503 186.661 93.503L187.212 89.035Z" fill="#BA4D3C"/>
<path d="M185.12 94.642C185.156 94.6422 185.191 94.6291 185.218 94.6052C185.244 94.5814 185.261 94.5486 185.265 94.5132C185.267 94.4768 185.256 94.4408 185.233 94.4121C185.21 94.3833 185.177 94.3638 185.141 94.3573C184.543 94.2993 183.967 94.1034 183.46 93.7854C182.954 93.4674 182.53 93.0361 182.224 92.5267C182.206 92.4937 182.176 92.4684 182.141 92.4558C182.105 92.4433 182.066 92.4444 182.031 92.4589C181.998 92.4762 181.972 92.5058 181.961 92.5413C181.949 92.5768 181.952 92.6154 181.969 92.6487C182.292 93.2039 182.745 93.6744 183.291 94.0202C183.837 94.366 184.46 94.577 185.106 94.6353L185.12 94.642Z" fill="#263238"/>
<path d="M182.155 86.4382C182.193 86.4388 182.231 86.4319 182.266 86.4179C182.302 86.4039 182.334 86.3832 182.361 86.3569C182.601 86.0972 182.901 85.8973 183.234 85.7736C183.568 85.6499 183.927 85.6058 184.281 85.645C184.355 85.657 184.43 85.6404 184.492 85.5987C184.553 85.557 184.596 85.4934 184.611 85.4212C184.625 85.3493 184.61 85.2748 184.569 85.2139C184.528 85.153 184.464 85.1105 184.391 85.0958C183.944 85.0359 183.489 85.0836 183.065 85.2347C182.641 85.3859 182.26 85.636 181.955 85.9636C181.928 85.9896 181.906 86.0206 181.892 86.055C181.877 86.0893 181.869 86.1263 181.869 86.1636C181.869 86.201 181.877 86.2379 181.892 86.2723C181.906 86.3066 181.928 86.3377 181.955 86.3636C182.01 86.4121 182.081 86.4387 182.155 86.4382Z" fill="#263238"/>
<path d="M191.601 87.462H191.691C191.762 87.4373 191.821 87.3858 191.855 87.3185C191.888 87.2513 191.894 87.1737 191.869 87.1027C191.732 86.6805 191.494 86.2967 191.175 85.9831C190.857 85.6695 190.468 85.435 190.039 85.2992C190.003 85.2901 189.966 85.2881 189.929 85.2934C189.892 85.2987 189.856 85.3112 189.824 85.3301C189.792 85.349 189.764 85.374 189.742 85.4036C189.72 85.4332 189.704 85.4669 189.695 85.5026C189.685 85.5378 189.682 85.5746 189.687 85.611C189.691 85.6473 189.703 85.6824 189.722 85.7141C189.74 85.7458 189.765 85.7734 189.795 85.7953C189.825 85.8172 189.859 85.833 189.895 85.8416C190.234 85.9521 190.541 86.1408 190.791 86.392C191.041 86.6432 191.227 86.9496 191.333 87.2857C191.355 87.3381 191.392 87.3828 191.44 87.4142C191.487 87.4456 191.544 87.4622 191.601 87.462Z" fill="#263238"/>
<path d="M166.241 115.836C162.629 117.084 158.914 118.392 155.323 119.748C153.52 120.426 151.745 121.104 150.018 121.864C148.366 122.546 146.758 123.327 145.202 124.203C145.03 124.305 144.858 124.399 144.721 124.501C144.578 124.587 144.441 124.679 144.308 124.779L144.143 124.894C144.127 124.891 144.111 124.891 144.095 124.894C144.038 124.933 143.988 124.978 143.943 125.03C143.574 125.49 143.286 126.008 143.09 126.562C142.528 128.174 142.141 129.84 141.934 131.532C141.659 133.329 141.494 135.193 141.363 137.085C141.308 138.027 141.233 138.976 141.191 139.932L141.095 142.773L136.795 143.302C135.803 139.306 135.279 135.212 135.233 131.098C135.196 128.864 135.441 126.635 135.963 124.46C136.285 123.117 136.834 121.835 137.586 120.67C137.825 120.32 138.087 119.984 138.371 119.667C138.508 119.504 138.687 119.335 138.852 119.172L139.251 118.82C139.513 118.582 139.767 118.386 140.015 118.189C140.263 117.992 140.51 117.823 140.758 117.647C142.561 116.414 144.459 115.321 146.434 114.379C148.305 113.443 150.184 112.623 152.069 111.829C155.846 110.263 159.602 108.894 163.531 107.666L166.241 115.836Z" fill="#CE7A63"/>
<path d="M141.095 140.868L141.866 146.136C141.93 146.629 141.89 147.13 141.749 147.607C141.608 148.084 141.368 148.527 141.045 148.909C140.723 149.291 140.323 149.603 139.873 149.826C139.422 150.049 138.929 150.177 138.426 150.204C137.782 150.241 137.14 150.109 136.565 149.823C135.989 149.537 135.5 149.107 135.147 148.576C134.794 148.044 134.59 147.43 134.554 146.796C134.518 146.162 134.653 145.53 134.944 144.963C135.563 143.71 136.33 142.534 137.228 141.458L141.095 140.868Z" fill="#CE7A63"/>
<path d="M172.908 108.392C169.317 103.781 151.676 110.989 151.676 110.989L155.227 122.515C159.084 122.461 162.901 121.727 166.496 120.345C173.789 117.701 176.658 113.226 172.908 108.392Z" fill="#263238"/>
<path d="M155.763 156.069L155.275 158.584C155.245 158.753 155.281 158.926 155.376 159.069C155.47 159.212 155.616 159.315 155.784 159.357C158.054 159.872 166.152 161.622 175.289 162.747C183.503 163.757 187.301 163.601 188.643 163.473C188.811 163.453 188.965 163.372 189.077 163.247C189.188 163.122 189.249 162.961 189.248 162.795V160.483C189.248 160.31 189.182 160.143 189.061 160.017C188.941 159.891 188.777 159.815 188.601 159.805C186.021 159.716 175.667 159.127 156.561 155.526C156.383 155.495 156.198 155.534 156.049 155.636C155.899 155.737 155.797 155.893 155.763 156.069Z" fill="#407BFF"/>
</svg>
